HIERARCHY
ROOT Hips
{
	OFFSET 0.00000 0.00000 0.00000
	CHANNELS 6 Xposition Yposition Zposition Zrotation Yrotation Xrotation 
	JOINT LHipJoint
	{
		OFFSET 0 0 0
		CHANNELS 3 Zrotation Yrotation Xrotation
		JOINT LeftHip
		{
			OFFSET 1.53139 -1.83434 0.76626
			CHANNELS 3 Zrotation Yrotation Xrotation
			JOINT LeftKnee
			{
				OFFSET 2.56112 -7.03663 0.00000
				CHANNELS 3 Zrotation Yrotation Xrotation
				JOINT LeftAnkle
				{
					OFFSET 2.59983 -7.14299 0.00000
					CHANNELS 3 Zrotation Yrotation Xrotation
					JOINT LeftToe
					{
						OFFSET 0.13742 -0.37757 2.00054
						CHANNELS 3 Zrotation Yrotation Xrotation
						End Site
						{
							OFFSET 0.00000 -0.00000 1.02897
						}
					}
				}
			}
		}
	}
	JOINT RHipJoint
	{
		OFFSET 0 0 0
		CHANNELS 3 Zrotation Yrotation Xrotation
		JOINT RightHip
		{
			OFFSET -1.40122 -1.83435 0.76627
			CHANNELS 3 Zrotation Yrotation Xrotation
			JOINT RightKnee
			{
				OFFSET -2.54052 -6.98003 0.00000
				CHANNELS 3 Zrotation Yrotation Xrotation
				JOINT RightAnkle
				{
					OFFSET -2.63179 -7.23079 0.00000
					CHANNELS 3 Zrotation Yrotation Xrotation
					JOINT RightToe
					{
						OFFSET -0.24131 -0.66299 2.03908
						CHANNELS 3 Zrotation Yrotation Xrotation
						End Site
						{
							OFFSET -0.00000 -0.00000 1.07391
						}
					}
				}
			}
		}
	}
	JOINT lowerback
	{
		OFFSET 0 0 0
		CHANNELS 3 Zrotation Yrotation Xrotation
		JOINT Chest
		{
			OFFSET 0.01174 2.10302 -0.29778
			CHANNELS 3 Zrotation Yrotation Xrotation
			JOINT Chest2
			{
				OFFSET 0.00772 2.13227 -0.01247
				CHANNELS 3 Zrotation Yrotation Xrotation
				JOINT lowerneck
				{
					OFFSET 0 0 0
					CHANNELS 3 Zrotation Yrotation Xrotation
					JOINT Neck
					{
						OFFSET -0.09219 1.60848 0.31481
						CHANNELS 3 Zrotation Yrotation Xrotation
						JOINT Head
						{
							OFFSET 0.13974 1.65456 -0.31134
							CHANNELS 3 Zrotation Yrotation Xrotation
							End Site
							{
								OFFSET 0.04742 1.69515 -0.14578
							}
						}
					}
				}
				JOINT LeftCollar
				{
					OFFSET 0 0 0
					CHANNELS 3 Zrotation Yrotation Xrotation
					JOINT LeftShoulder
					{
						OFFSET 3.24909 1.02882 -0.23993
CHANNELS 3 Zrotation Xrotation Yrotation
						JOINT LeftElbow
						{
OFFSET 0 -5.329550 -0.000000
CHANNELS 3 Zrotation Xrotation Yrotation
							JOINT LeftWrist
							{
OFFSET 0 -3.692320 -0.000000
CHANNELS 3 Zrotation Xrotation Yrotation
								JOINT lhand
								{
									OFFSET 0 0 0
CHANNELS 3 Zrotation Xrotation Yrotation
									JOINT LFingers
									{
OFFSET 0 -0.536600 -0.000000
CHANNELS 3 Zrotation Xrotation Yrotation
										End Site
										{
OFFSET 0 -0.432620 -0.000000
										}
									}
								}
								JOINT LThumb
								{
OFFSET 0 0.000000 0.000000
CHANNELS 3 Zrotation Xrotation Yrotation
									End Site
									{
OFFSET 0 -0.439220 0.439220
									}
								}
							}
						}
					}
				}
				JOINT RightCollar
				{
					OFFSET 0 0 0
					CHANNELS 3 Zrotation Yrotation Xrotation
					JOINT RightShoulder
					{
						OFFSET -3.21387 0.93002 -0.34594
CHANNELS 3 Zrotation Xrotation Yrotation
						JOINT RightElbow
						{
OFFSET 0 -5.234310 0.000000
CHANNELS 3 Zrotation Xrotation Yrotation
							JOINT RightWrist
							{
OFFSET 0 -3.553010 -0.000000
CHANNELS 3 Zrotation Xrotation Yrotation
								JOINT rhand
								{
									OFFSET 0 0 0
CHANNELS 3 Zrotation Xrotation Yrotation
									JOINT RFingers
									{
OFFSET 0 -0.772520 -0.000000
CHANNELS 3 Zrotation Xrotation Yrotation
										End Site
										{
OFFSET 0 -0.622830 -0.000000
										}
									}
								}
								JOINT RThumb
								{
OFFSET 0 0.000000 0.000000
CHANNELS 3 Zrotation Xrotation Yrotation
									End Site
									{
OFFSET 0 -0.632340 0.632340
									}
								}
							}
						}
					}
				}
			}
		}
	}
}
MOTION
Frames: 12
Frame Time: 0.008333333333333333
-15.023131 17.929098 14.802051 542.055346 -212.814546 543.353731 0.000000 0.000000 0.000000 -22.017792 11.523026 -15.575192 2.218245 9.305907 26.757624 -0.290352 15.998430 -19.547723 0.044424 1.359635 3.738966 0.000000 0.000000 0.000000 22.142442 -13.324419 -18.312271 -3.282801 -11.139329 32.751316 0.863044 -23.845747 -27.573073 -0.044154 -1.356573 3.730522 0.956548 -0.466294 7.963748 1.715957 -0.447874 0.160738 1.292651 -0.220615 -4.295245 -10.029726 -1.697556 -17.933384 2.775772 0.459653 36.522217 3.098675 -0.680195 16.036985 0.000000 0.000000 0.000000 4.111055 2.060997 -22.604486 18.116804 -28.306419 4.604474 21.997537 12.278068 -23.788664 0.000000 0.000000 0.000000 -7.125000 0.000000 0.000000 -7.817896 55.237302 1.973523 0.000000 0.000000 0.000000 -6.905503 10.912196 19.527428 -15.319796 -24.589734 -3.357928 -19.262979 2.916956 -5.081428 0.000000 0.000000 0.000000 7.125000 0.000000 0.000000 5.537093 24.599553 2.741960
-14.906768 17.912331 14.610990 541.915190 -223.818137 543.215616 0.000000 0.000000 0.000000 -22.287173 7.116659 -12.821150 1.623021 8.032179 22.812074 -0.086885 13.078655 -17.488711 0.035216 1.211135 3.330024 0.000000 0.000000 0.000000 21.744508 -15.083557 -19.039944 -3.649338 -11.678530 34.603995 1.131731 -26.979115 -31.176493 -0.311841 -3.585941 9.914858 1.388912 -0.207217 8.078183 2.114058 -0.035094 0.121793 1.416259 -0.018429 -4.407084 -9.241115 -1.600874 -17.647760 2.050088 0.753616 36.869652 2.721551 -0.502191 16.128272 0.000000 0.000000 0.000000 3.176803 3.582293 -23.054439 18.735748 -29.089050 4.901728 22.663860 11.821567 -24.226308 0.000000 0.000000 0.000000 -7.125000 0.000000 0.000000 -7.292722 55.826346 1.944798 0.000000 0.000000 0.000000 -7.326865 10.505673 21.426941 -15.900786 -25.385924 -3.603288 -19.147962 2.520758 -4.802804 0.000000 0.000000 0.000000 7.125000 0.000000 0.000000 5.630025 24.896522 2.749361
-14.727274 17.828861 14.389422 543.997751 -233.360222 544.142504 0.000000 0.000000 0.000000 -23.759646 5.449931 -11.659457 1.524090 7.794958 22.093180 0.331972 4.955140 -13.851175 0.000480 0.140875 0.387052 0.000000 0.000000 0.000000 18.852539 -15.971093 -18.873786 -4.531865 -12.835916 38.758225 1.018311 -27.235816 -32.386955 -0.883951 -5.993423 16.765401 0.667259 0.169982 8.480769 1.686172 0.383391 0.392049 1.327636 0.199621 -4.358570 -9.463191 -1.917660 -17.354080 3.033832 0.044720 36.441192 3.058471 -0.629879 15.886401 0.000000 0.000000 0.000000 3.547394 5.101384 -23.506407 18.978413 -29.391722 5.020331 21.679136 10.286195 -23.415622 0.000000 0.000000 0.000000 -7.125000 0.000000 0.000000 -8.003819 54.788068 1.935094 0.000000 0.000000 0.000000 -6.447855 9.091532 19.804806 -16.977083 -26.827370 -4.077066 -19.909959 1.942416 -5.046716 0.000000 0.000000 0.000000 7.125000 0.000000 0.000000 5.054753 24.614713 2.499332
-14.572950 17.800750 14.259277 548.145511 -241.740486 546.623351 0.000000 0.000000 0.000000 -25.925837 6.064008 -9.549495 1.217598 6.999372 19.713477 0.334473 -1.766733 -10.461702 0.036410 -1.212816 -3.334892 0.000000 0.000000 0.000000 14.485724 -9.589948 -16.163019 -6.105504 -14.529383 45.402977 0.357126 -18.116142 -22.369607 -0.845785 -5.837679 16.322115 -1.542772 0.550113 9.568208 1.048103 0.636691 0.742928 1.874078 0.363737 -4.622836 -9.644632 -2.347066 -16.931474 3.872747 -0.810534 36.073161 3.296085 -0.846892 15.676528 0.000000 0.000000 0.000000 4.841517 5.871243 -22.242518 18.543005 -28.846645 4.808492 18.325377 10.169576 -24.227156 0.000000 0.000000 0.000000 -7.125000 0.000000 0.000000 -11.802586 54.952650 2.914938 0.000000 0.000000 0.000000 -5.093001 8.220216 19.080217 -19.524777 -30.065429 -5.291234 -20.381634 -0.671178 -5.362506 0.000000 0.000000 0.000000 7.125000 0.000000 0.000000 4.697866 24.263157 2.359713
-14.408800 17.823818 14.278209 549.571856 -251.267750 547.544329 0.000000 0.000000 0.000000 -25.307872 3.793671 -8.127284 1.250413 7.089582 19.981076 0.191633 -6.891659 -8.553667 0.001886 0.243048 0.667923 0.000000 0.000000 0.000000 15.072232 -1.476519 -13.214063 -6.806029 -15.166397 48.136930 -1.090815 -3.618696 -21.347327 -0.278569 -3.393164 9.375477 -2.239876 -0.046855 9.576366 1.178876 -0.215779 1.057045 2.516168 -0.047637 -4.257798 -10.353627 -2.618938 -16.261408 4.695239 -1.266052 35.734160 3.687484 -0.980205 15.410055 0.000000 0.000000 0.000000 4.413831 5.071258 -16.755417 16.950938 -26.792848 4.065238 22.405064 13.103330 -25.490160 0.000000 0.000000 0.000000 -7.125000 0.000000 0.000000 -8.103431 57.075939 2.408192 0.000000 0.000000 0.000000 -3.825093 6.455859 19.394434 -20.979288 -31.804147 -6.039033 -20.910210 -1.396290 -6.173754 0.000000 0.000000 0.000000 7.125000 0.000000 0.000000 4.298622 23.378554 2.246044
-14.243336 17.871690 14.398517 557.123858 -261.236624 554.833633 0.000000 0.000000 0.000000 -24.676979 2.916518 -7.592265 1.250855 7.090758 19.984494 -0.285558 -13.116978 -4.947500 0.044785 1.362441 3.746764 0.000000 0.000000 0.000000 16.557650 1.480878 -12.021308 -6.408416 -14.812744 46.599383 -1.100115 -3.596841 -21.413232 -0.009895 0.632737 -1.738750 -3.571356 -0.418651 9.780310 1.043340 -0.856483 1.144764 3.212641 -0.342738 -4.223307 -10.032472 -3.262966 -16.028418 4.967186 -2.361941 35.670412 3.562873 -1.324438 15.436909 0.000000 0.000000 0.000000 5.159672 4.118112 -17.069824 15.914837 -25.405040 3.609289 23.172761 13.659646 -26.122730 0.000000 0.000000 0.000000 -7.125000 0.000000 0.000000 -7.558549 57.896725 2.394604 0.000000 0.000000 0.000000 -2.759534 5.697357 20.267620 -22.446585 -33.477997 -6.830542 -19.628884 -1.782968 -7.032687 0.000000 0.000000 0.000000 7.125000 0.000000 0.000000 5.235847 22.527634 2.841898
-14.062826 17.861313 14.508629 609.195447 -267.896427 607.221374 0.000000 0.000000 0.000000 -23.898268 0.174563 -7.958841 1.534466 7.820410 22.169960 -0.623210 -16.735899 -3.941284 0.438216 4.231381 11.730918 0.000000 0.000000 0.000000 17.665128 3.518767 -10.438672 -5.008993 -13.393170 40.860042 -1.203317 2.138916 -20.140304 -0.364804 3.878230 -10.734635 -3.743534 -0.292195 9.446547 0.538947 -0.715620 1.125388 2.759563 -0.276144 -4.073232 -9.936526 -3.798716 -15.457523 5.590466 -3.421507 34.901821 3.602471 -1.641911 15.051997 0.000000 0.000000 0.000000 6.131678 3.352568 -19.687752 16.060134 -25.602070 3.671884 22.227742 13.904023 -25.116571 0.000000 0.000000 0.000000 -7.125000 0.000000 0.000000 -8.128200 56.653558 2.332483 0.000000 0.000000 0.000000 -2.072582 5.725294 22.308940 -23.879112 -35.036218 -7.637040 -19.362264 -1.741071 -7.795032 0.000000 0.000000 0.000000 7.125000 0.000000 0.000000 5.425461 21.737744 3.043773
-13.926603 17.803049 14.630342 695.029444 -266.156164 693.317808 0.000000 0.000000 0.000000 -23.258738 -1.150561 -8.297267 1.721125 8.259287 23.504404 -0.767091 -19.253063 -5.450728 0.101059 2.027458 5.582307 0.000000 0.000000 0.000000 18.840663 4.610040 -9.489070 -4.039720 -12.212823 36.489417 -1.341219 1.401481 -21.484733 -1.031277 6.458828 -18.121823 -3.925112 0.293342 9.263419 0.017422 0.034768 1.178527 2.222067 0.093895 -3.971185 -10.092063 -3.761955 -15.549132 5.586351 -3.232822 34.696695 3.657732 -1.558365 14.962069 0.000000 0.000000 0.000000 5.640707 3.342026 -19.848809 17.137480 -27.038664 4.149681 24.432098 14.158399 -25.211990 0.000000 0.000000 0.000000 -7.125000 0.000000 0.000000 -5.794573 57.230660 1.740139 0.000000 0.000000 0.000000 -2.226983 4.763289 24.461561 -23.936685 -35.097185 -7.670142 -18.881181 -1.011905 -8.440029 0.000000 0.000000 0.000000 7.125000 0.000000 0.000000 5.770993 21.086544 3.324987
-13.807427 17.754565 14.746925 702.175614 -264.398636 700.864030 0.000000 0.000000 0.000000 -22.987016 -3.115655 -8.361066 1.892880 8.639365 24.673499 -0.710535 -20.040465 -7.202391 0.023447 0.977775 2.687645 0.000000 0.000000 0.000000 19.703905 1.916743 -9.985609 -3.457564 -11.401251 33.645380 -1.307170 2.241308 -20.994642 -0.104876 2.076734 -5.718164 -3.831598 0.964043 8.807560 -0.756287 0.925794 1.082550 1.257104 0.529649 -3.862411 -9.899310 -3.399573 -15.776066 5.171582 -2.514510 34.740126 3.577610 -1.264668 14.947979 0.000000 0.000000 0.000000 5.270352 4.216497 -19.790118 17.646406 -27.702006 4.383627 23.946235 11.900743 -24.002858 0.000000 0.000000 0.000000 -7.125000 0.000000 0.000000 -5.846296 55.861072 1.561686 0.000000 0.000000 0.000000 -1.897802 3.664212 25.546025 -23.791212 -34.942677 -7.586616 -17.988760 0.375052 -8.401662 0.000000 0.000000 0.000000 7.125000 0.000000 0.000000 6.415748 21.176135 3.687691
-13.691209 17.704934 14.866003 704.632364 -265.234601 703.326421 0.000000 0.000000 0.000000 -22.065816 -4.418827 -8.071416 2.099260 9.069810 26.013973 -0.476501 -19.206869 -8.923372 0.014142 0.766512 2.106548 0.000000 0.000000 0.000000 20.693071 0.340822 -8.696047 -3.014739 -10.718852 31.337493 -1.446227 2.852214 -21.986224 -0.206499 2.910991 -8.032046 -3.034105 1.891545 8.827451 -1.145887 2.207834 0.777859 0.240983 1.154388 -4.209587 -9.236404 -3.202000 -16.638192 3.983990 -1.752682 36.236580 3.156629 -1.001816 15.782598 0.000000 0.000000 0.000000 4.027837 4.964961 -17.439238 16.214458 -25.810466 3.738919 23.484563 14.260746 -23.700385 0.000000 0.000000 0.000000 -7.125000 0.000000 0.000000 -6.222104 55.448914 1.600110 0.000000 0.000000 0.000000 -1.381612 3.109960 25.633883 -23.368297 -34.489056 -7.345805 -17.807610 0.100115 -8.903425 0.000000 0.000000 0.000000 7.125000 0.000000 0.000000 6.541239 20.663609 3.836903
-13.627053 17.693437 15.002890 729.816671 -267.269506 728.655311 0.000000 0.000000 0.000000 -19.773984 -5.490091 -9.455829 2.688399 10.172046 29.536224 -0.160276 -16.952972 -10.272835 0.001360 0.158268 0.434855 0.000000 0.000000 0.000000 22.832207 -0.009150 -7.936787 -2.668983 -10.138798 29.427370 -1.518136 5.748924 -22.133687 -0.298508 3.437690 -9.506871 -1.331687 2.443830 9.297429 -0.831614 3.101140 0.579250 -0.525220 1.564789 -4.631336 -8.852999 -2.135049 -16.594412 4.442757 -0.601430 34.664886 3.415291 -0.399158 14.884329 0.000000 0.000000 0.000000 2.183777 5.440065 -13.782517 14.418487 -23.329727 2.991894 23.295499 17.201780 -23.046434 0.000000 0.000000 0.000000 -7.125000 0.000000 0.000000 -6.181280 54.727281 1.479948 0.000000 0.000000 0.000000 -1.382777 1.726630 26.743398 -22.038804 -33.020651 -6.607049 -17.707249 0.737191 -8.755509 0.000000 0.000000 0.000000 7.125000 0.000000 0.000000 6.614917 20.823095 3.856712
-13.597713 17.724409 15.268501 763.619017 -265.643574 761.974165 0.000000 0.000000 0.000000 -16.076268 -6.378255 -14.636433 4.655694 12.982610 39.307728 -0.138458 -12.874062 -7.094569 0.014345 -0.489655 -1.346356 0.000000 0.000000 0.000000 26.990443 0.866355 -5.205631 -2.140604 -9.152802 26.274664 -1.372438 5.415184 -21.032131 -0.012700 0.689456 -1.894793 -0.055610 2.321679 11.105530 0.153107 3.128858 0.954064 -0.292671 1.561757 -5.236244 -8.924500 -1.997389 -17.277803 4.533950 -0.446131 33.835613 3.457284 -0.342170 14.638030 0.000000 0.000000 0.000000 1.328796 5.658564 -15.954734 13.769583 -22.404320 2.739644 24.051938 19.497955 -23.407545 0.000000 0.000000 0.000000 -7.125000 0.000000 0.000000 -5.515799 55.259103 1.390911 0.000000 0.000000 0.000000 -1.062757 0.245621 26.945272 -21.478668 -32.382808 -6.304316 -17.301495 1.200250 -8.402600 0.000000 0.000000 0.000000 7.125000 0.000000 0.000000 6.911990 21.211455 3.971313
